<?xml version="1.0" encoding="utf-8"?>
<svg xmlns="http://www.w3.org/2000/svg" xmlns:xlink="http://www.w3.org/1999/xlink" width="600" height="400" viewBox="0 0 2400 1600">
<defs>
  <clipPath id="clip5600">
    <rect x="0" y="0" width="2400" height="1600"/>
  </clipPath>
</defs>
<path clip-path="url(#clip5600)" d="
M0 1600 L2400 1600 L2400 0 L0 0  Z
  " fill="#ffffff" fill-rule="evenodd" fill-opacity="1"/>
<defs>
  <clipPath id="clip5601">
    <rect x="480" y="0" width="1681" height="1600"/>
  </clipPath>
</defs>
<path clip-path="url(#clip5600)" d="
M148.334 1486.45 L2352.76 1486.45 L2352.76 47.2441 L148.334 47.2441  Z
  " fill="#ffffff" fill-rule="evenodd" fill-opacity="1"/>
<defs>
  <clipPath id="clip5602">
    <rect x="148" y="47" width="2205" height="1440"/>
  </clipPath>
</defs>
<polyline clip-path="url(#clip5602)" style="stroke:#000000; stroke-width:2; stroke-opacity:0.1; fill:none" points="
  182.886,1486.45 182.886,47.2441 
  "/>
<polyline clip-path="url(#clip5602)" style="stroke:#000000; stroke-width:2; stroke-opacity:0.1; fill:none" points="
  713.574,1486.45 713.574,47.2441 
  "/>
<polyline clip-path="url(#clip5602)" style="stroke:#000000; stroke-width:2; stroke-opacity:0.1; fill:none" points="
  1244.26,1486.45 1244.26,47.2441 
  "/>
<polyline clip-path="url(#clip5602)" style="stroke:#000000; stroke-width:2; stroke-opacity:0.1; fill:none" points="
  1774.95,1486.45 1774.95,47.2441 
  "/>
<polyline clip-path="url(#clip5602)" style="stroke:#000000; stroke-width:2; stroke-opacity:0.1; fill:none" points="
  2305.64,1486.45 2305.64,47.2441 
  "/>
<polyline clip-path="url(#clip5602)" style="stroke:#000000; stroke-width:2; stroke-opacity:0.1; fill:none" points="
  148.334,1478.38 2352.76,1478.38 
  "/>
<polyline clip-path="url(#clip5602)" style="stroke:#000000; stroke-width:2; stroke-opacity:0.1; fill:none" points="
  148.334,1111.99 2352.76,1111.99 
  "/>
<polyline clip-path="url(#clip5602)" style="stroke:#000000; stroke-width:2; stroke-opacity:0.1; fill:none" points="
  148.334,745.602 2352.76,745.602 
  "/>
<polyline clip-path="url(#clip5602)" style="stroke:#000000; stroke-width:2; stroke-opacity:0.1; fill:none" points="
  148.334,379.215 2352.76,379.215 
  "/>
<polyline clip-path="url(#clip5600)" style="stroke:#000000; stroke-width:4; stroke-opacity:1; fill:none" points="
  148.334,1486.45 2352.76,1486.45 
  "/>
<polyline clip-path="url(#clip5600)" style="stroke:#000000; stroke-width:4; stroke-opacity:1; fill:none" points="
  148.334,1486.45 148.334,47.2441 
  "/>
<polyline clip-path="url(#clip5600)" style="stroke:#000000; stroke-width:4; stroke-opacity:1; fill:none" points="
  182.886,1486.45 182.886,1469.18 
  "/>
<polyline clip-path="url(#clip5600)" style="stroke:#000000; stroke-width:4; stroke-opacity:1; fill:none" points="
  713.574,1486.45 713.574,1469.18 
  "/>
<polyline clip-path="url(#clip5600)" style="stroke:#000000; stroke-width:4; stroke-opacity:1; fill:none" points="
  1244.26,1486.45 1244.26,1469.18 
  "/>
<polyline clip-path="url(#clip5600)" style="stroke:#000000; stroke-width:4; stroke-opacity:1; fill:none" points="
  1774.95,1486.45 1774.95,1469.18 
  "/>
<polyline clip-path="url(#clip5600)" style="stroke:#000000; stroke-width:4; stroke-opacity:1; fill:none" points="
  2305.64,1486.45 2305.64,1469.18 
  "/>
<polyline clip-path="url(#clip5600)" style="stroke:#000000; stroke-width:4; stroke-opacity:1; fill:none" points="
  148.334,1478.38 174.787,1478.38 
  "/>
<polyline clip-path="url(#clip5600)" style="stroke:#000000; stroke-width:4; stroke-opacity:1; fill:none" points="
  148.334,1111.99 174.787,1111.99 
  "/>
<polyline clip-path="url(#clip5600)" style="stroke:#000000; stroke-width:4; stroke-opacity:1; fill:none" points="
  148.334,745.602 174.787,745.602 
  "/>
<polyline clip-path="url(#clip5600)" style="stroke:#000000; stroke-width:4; stroke-opacity:1; fill:none" points="
  148.334,379.215 174.787,379.215 
  "/>
<path clip-path="url(#clip5600)" d="M 0 0 M150.896 1508.44 Q147.285 1508.44 145.456 1512 Q143.651 1515.55 143.651 1522.67 Q143.651 1529.78 145.456 1533.35 Q147.285 1536.89 150.896 1536.89 Q154.53 1536.89 156.336 1533.35 Q158.164 1529.78 158.164 1522.67 Q158.164 1515.55 156.336 1512 Q154.53 1508.44 150.896 1508.44 M150.896 1504.73 Q156.706 1504.73 159.762 1509.34 Q162.84 1513.92 162.84 1522.67 Q162.84 1531.4 159.762 1536.01 Q156.706 1540.59 150.896 1540.59 Q145.086 1540.59 142.007 1536.01 Q138.952 1531.4 138.952 1522.67 Q138.952 1513.92 142.007 1509.34 Q145.086 1504.73 150.896 1504.73 Z" fill="#000000" fill-rule="evenodd" fill-opacity="1" /><path clip-path="url(#clip5600)" d="M 0 0 M167.91 1534.04 L172.794 1534.04 L172.794 1539.92 L167.91 1539.92 L167.91 1534.04 Z" fill="#000000" fill-rule="evenodd" fill-opacity="1" /><path clip-path="url(#clip5600)" d="M 0 0 M187.863 1508.44 Q184.252 1508.44 182.424 1512 Q180.618 1515.55 180.618 1522.67 Q180.618 1529.78 182.424 1533.35 Q184.252 1536.89 187.863 1536.89 Q191.498 1536.89 193.303 1533.35 Q195.132 1529.78 195.132 1522.67 Q195.132 1515.55 193.303 1512 Q191.498 1508.44 187.863 1508.44 M187.863 1504.73 Q193.673 1504.73 196.729 1509.34 Q199.808 1513.92 199.808 1522.67 Q199.808 1531.4 196.729 1536.01 Q193.673 1540.59 187.863 1540.59 Q182.053 1540.59 178.974 1536.01 Q175.919 1531.4 175.919 1522.67 Q175.919 1513.92 178.974 1509.34 Q182.053 1504.73 187.863 1504.73 Z" fill="#000000" fill-rule="evenodd" fill-opacity="1" /><path clip-path="url(#clip5600)" d="M 0 0 M214.877 1508.44 Q211.266 1508.44 209.437 1512 Q207.632 1515.55 207.632 1522.67 Q207.632 1529.78 209.437 1533.35 Q211.266 1536.89 214.877 1536.89 Q218.511 1536.89 220.317 1533.35 Q222.146 1529.78 222.146 1522.67 Q222.146 1515.55 220.317 1512 Q218.511 1508.44 214.877 1508.44 M214.877 1504.73 Q220.687 1504.73 223.743 1509.34 Q226.821 1513.92 226.821 1522.67 Q226.821 1531.4 223.743 1536.01 Q220.687 1540.59 214.877 1540.59 Q209.067 1540.59 205.988 1536.01 Q202.933 1531.4 202.933 1522.67 Q202.933 1513.92 205.988 1509.34 Q209.067 1504.73 214.877 1504.73 Z" fill="#000000" fill-rule="evenodd" fill-opacity="1" /><path clip-path="url(#clip5600)" d="M 0 0 M682.88 1508.44 Q679.269 1508.44 677.44 1512 Q675.635 1515.55 675.635 1522.67 Q675.635 1529.78 677.44 1533.35 Q679.269 1536.89 682.88 1536.89 Q686.514 1536.89 688.32 1533.35 Q690.148 1529.78 690.148 1522.67 Q690.148 1515.55 688.32 1512 Q686.514 1508.44 682.88 1508.44 M682.88 1504.73 Q688.69 1504.73 691.746 1509.34 Q694.824 1513.92 694.824 1522.67 Q694.824 1531.4 691.746 1536.01 Q688.69 1540.59 682.88 1540.59 Q677.07 1540.59 673.991 1536.01 Q670.936 1531.4 670.936 1522.67 Q670.936 1513.92 673.991 1509.34 Q677.07 1504.73 682.88 1504.73 Z" fill="#000000" fill-rule="evenodd" fill-opacity="1" /><path clip-path="url(#clip5600)" d="M 0 0 M699.894 1534.04 L704.778 1534.04 L704.778 1539.92 L699.894 1539.92 L699.894 1534.04 Z" fill="#000000" fill-rule="evenodd" fill-opacity="1" /><path clip-path="url(#clip5600)" d="M 0 0 M713.875 1535.98 L730.195 1535.98 L730.195 1539.92 L708.25 1539.92 L708.25 1535.98 Q710.912 1533.23 715.496 1528.6 Q720.102 1523.95 721.283 1522.61 Q723.528 1520.08 724.408 1518.35 Q725.31 1516.59 725.31 1514.9 Q725.31 1512.14 723.366 1510.41 Q721.445 1508.67 718.343 1508.67 Q716.144 1508.67 713.69 1509.43 Q711.259 1510.2 708.482 1511.75 L708.482 1507.03 Q711.306 1505.89 713.759 1505.31 Q716.213 1504.73 718.25 1504.73 Q723.62 1504.73 726.815 1507.42 Q730.009 1510.11 730.009 1514.6 Q730.009 1516.73 729.199 1518.65 Q728.412 1520.54 726.306 1523.14 Q725.727 1523.81 722.625 1527.03 Q719.523 1530.22 713.875 1535.98 Z" fill="#000000" fill-rule="evenodd" fill-opacity="1" /><path clip-path="url(#clip5600)" d="M 0 0 M735.31 1505.36 L753.667 1505.36 L753.667 1509.3 L739.593 1509.3 L739.593 1517.77 Q740.611 1517.42 741.63 1517.26 Q742.648 1517.07 743.667 1517.07 Q749.454 1517.07 752.833 1520.24 Q756.213 1523.42 756.213 1528.83 Q756.213 1534.41 752.741 1537.51 Q749.268 1540.59 742.949 1540.59 Q740.773 1540.59 738.505 1540.22 Q736.259 1539.85 733.852 1539.11 L733.852 1534.41 Q735.935 1535.54 738.157 1536.1 Q740.38 1536.66 742.856 1536.66 Q746.861 1536.66 749.199 1534.55 Q751.537 1532.44 751.537 1528.83 Q751.537 1525.22 749.199 1523.11 Q746.861 1521.01 742.856 1521.01 Q740.981 1521.01 739.106 1521.42 Q737.255 1521.84 735.31 1522.72 L735.31 1505.36 Z" fill="#000000" fill-rule="evenodd" fill-opacity="1" /><path clip-path="url(#clip5600)" d="M 0 0 M1212.77 1508.44 Q1209.16 1508.44 1207.33 1512 Q1205.52 1515.55 1205.52 1522.67 Q1205.52 1529.78 1207.33 1533.35 Q1209.16 1536.89 1212.77 1536.89 Q1216.4 1536.89 1218.21 1533.35 Q1220.04 1529.78 1220.04 1522.67 Q1220.04 1515.55 1218.21 1512 Q1216.4 1508.44 1212.77 1508.44 M1212.77 1504.73 Q1218.58 1504.73 1221.63 1509.34 Q1224.71 1513.92 1224.71 1522.67 Q1224.71 1531.4 1221.63 1536.01 Q1218.58 1540.59 1212.77 1540.59 Q1206.96 1540.59 1203.88 1536.01 Q1200.82 1531.4 1200.82 1522.67 Q1200.82 1513.92 1203.88 1509.34 Q1206.96 1504.73 1212.77 1504.73 Z" fill="#000000" fill-rule="evenodd" fill-opacity="1" /><path clip-path="url(#clip5600)" d="M 0 0 M1229.78 1534.04 L1234.67 1534.04 L1234.67 1539.92 L1229.78 1539.92 L1229.78 1534.04 Z" fill="#000000" fill-rule="evenodd" fill-opacity="1" /><path clip-path="url(#clip5600)" d="M 0 0 M1239.78 1505.36 L1258.14 1505.36 L1258.14 1509.3 L1244.07 1509.3 L1244.07 1517.77 Q1245.08 1517.42 1246.1 1517.26 Q1247.12 1517.07 1248.14 1517.07 Q1253.93 1517.07 1257.31 1520.24 Q1260.69 1523.42 1260.69 1528.83 Q1260.69 1534.41 1257.21 1537.51 Q1253.74 1540.59 1247.42 1540.59 Q1245.25 1540.59 1242.98 1540.22 Q1240.73 1539.85 1238.32 1539.11 L1238.32 1534.41 Q1240.41 1535.54 1242.63 1536.1 Q1244.85 1536.66 1247.33 1536.66 Q1251.33 1536.66 1253.67 1534.55 Q1256.01 1532.44 1256.01 1528.83 Q1256.01 1525.22 1253.67 1523.11 Q1251.33 1521.01 1247.33 1521.01 Q1245.45 1521.01 1243.58 1521.42 Q1241.73 1521.84 1239.78 1522.72 L1239.78 1505.36 Z" fill="#000000" fill-rule="evenodd" fill-opacity="1" /><path clip-path="url(#clip5600)" d="M 0 0 M1275.75 1508.44 Q1272.14 1508.44 1270.32 1512 Q1268.51 1515.55 1268.51 1522.67 Q1268.51 1529.78 1270.32 1533.35 Q1272.14 1536.89 1275.75 1536.89 Q1279.39 1536.89 1281.19 1533.35 Q1283.02 1529.78 1283.02 1522.67 Q1283.02 1515.55 1281.19 1512 Q1279.39 1508.44 1275.75 1508.44 M1275.75 1504.73 Q1281.57 1504.73 1284.62 1509.34 Q1287.7 1513.92 1287.7 1522.67 Q1287.7 1531.4 1284.62 1536.01 Q1281.57 1540.59 1275.75 1540.59 Q1269.94 1540.59 1266.87 1536.01 Q1263.81 1531.4 1263.81 1522.67 Q1263.81 1513.92 1266.87 1509.34 Q1269.94 1504.73 1275.75 1504.73 Z" fill="#000000" fill-rule="evenodd" fill-opacity="1" /><path clip-path="url(#clip5600)" d="M 0 0 M1743.91 1508.44 Q1740.3 1508.44 1738.47 1512 Q1736.66 1515.55 1736.66 1522.67 Q1736.66 1529.78 1738.47 1533.35 Q1740.3 1536.89 1743.91 1536.89 Q1747.54 1536.89 1749.35 1533.35 Q1751.18 1529.78 1751.18 1522.67 Q1751.18 1515.55 1749.35 1512 Q1747.54 1508.44 1743.91 1508.44 M1743.91 1504.73 Q1749.72 1504.73 1752.77 1509.34 Q1755.85 1513.92 1755.85 1522.67 Q1755.85 1531.4 1752.77 1536.01 Q1749.72 1540.59 1743.91 1540.59 Q1738.1 1540.59 1735.02 1536.01 Q1731.96 1531.4 1731.96 1522.67 Q1731.96 1513.92 1735.02 1509.34 Q1738.1 1504.73 1743.91 1504.73 Z" fill="#000000" fill-rule="evenodd" fill-opacity="1" /><path clip-path="url(#clip5600)" d="M 0 0 M1760.92 1534.04 L1765.81 1534.04 L1765.81 1539.92 L1760.92 1539.92 L1760.92 1534.04 Z" fill="#000000" fill-rule="evenodd" fill-opacity="1" /><path clip-path="url(#clip5600)" d="M 0 0 M1769.7 1505.36 L1791.92 1505.36 L1791.92 1507.35 L1779.37 1539.92 L1774.49 1539.92 L1786.29 1509.3 L1769.7 1509.3 L1769.7 1505.36 Z" fill="#000000" fill-rule="evenodd" fill-opacity="1" /><path clip-path="url(#clip5600)" d="M 0 0 M1797.03 1505.36 L1815.39 1505.36 L1815.39 1509.3 L1801.32 1509.3 L1801.32 1517.77 Q1802.33 1517.42 1803.35 1517.26 Q1804.37 1517.07 1805.39 1517.07 Q1811.18 1517.07 1814.56 1520.24 Q1817.94 1523.42 1817.94 1528.83 Q1817.94 1534.41 1814.46 1537.51 Q1810.99 1540.59 1804.67 1540.59 Q1802.5 1540.59 1800.23 1540.22 Q1797.98 1539.85 1795.57 1539.11 L1795.57 1534.41 Q1797.66 1535.54 1799.88 1536.1 Q1802.1 1536.66 1804.58 1536.66 Q1808.58 1536.66 1810.92 1534.55 Q1813.26 1532.44 1813.26 1528.83 Q1813.26 1525.22 1810.92 1523.11 Q1808.58 1521.01 1804.58 1521.01 Q1802.7 1521.01 1800.83 1521.42 Q1798.98 1521.84 1797.03 1522.72 L1797.03 1505.36 Z" fill="#000000" fill-rule="evenodd" fill-opacity="1" /><path clip-path="url(#clip5600)" d="M 0 0 M2264.03 1535.98 L2271.67 1535.98 L2271.67 1509.62 L2263.36 1511.29 L2263.36 1507.03 L2271.62 1505.36 L2276.3 1505.36 L2276.3 1535.98 L2283.94 1535.98 L2283.94 1539.92 L2264.03 1539.92 L2264.03 1535.98 Z" fill="#000000" fill-rule="evenodd" fill-opacity="1" /><path clip-path="url(#clip5600)" d="M 0 0 M2289.01 1534.04 L2293.89 1534.04 L2293.89 1539.92 L2289.01 1539.92 L2289.01 1534.04 Z" fill="#000000" fill-rule="evenodd" fill-opacity="1" /><path clip-path="url(#clip5600)" d="M 0 0 M2308.96 1508.44 Q2305.35 1508.44 2303.52 1512 Q2301.71 1515.55 2301.71 1522.67 Q2301.71 1529.78 2303.52 1533.35 Q2305.35 1536.89 2308.96 1536.89 Q2312.59 1536.89 2314.4 1533.35 Q2316.23 1529.78 2316.23 1522.67 Q2316.23 1515.55 2314.4 1512 Q2312.59 1508.44 2308.96 1508.44 M2308.96 1504.73 Q2314.77 1504.73 2317.82 1509.34 Q2320.9 1513.92 2320.9 1522.67 Q2320.9 1531.4 2317.82 1536.01 Q2314.77 1540.59 2308.96 1540.59 Q2303.15 1540.59 2300.07 1536.01 Q2297.01 1531.4 2297.01 1522.67 Q2297.01 1513.92 2300.07 1509.34 Q2303.15 1504.73 2308.96 1504.73 Z" fill="#000000" fill-rule="evenodd" fill-opacity="1" /><path clip-path="url(#clip5600)" d="M 0 0 M2335.97 1508.44 Q2332.36 1508.44 2330.53 1512 Q2328.73 1515.55 2328.73 1522.67 Q2328.73 1529.78 2330.53 1533.35 Q2332.36 1536.89 2335.97 1536.89 Q2339.61 1536.89 2341.41 1533.35 Q2343.24 1529.78 2343.24 1522.67 Q2343.24 1515.55 2341.41 1512 Q2339.61 1508.44 2335.97 1508.44 M2335.97 1504.73 Q2341.78 1504.73 2344.84 1509.34 Q2347.92 1513.92 2347.92 1522.67 Q2347.92 1531.4 2344.84 1536.01 Q2341.78 1540.59 2335.97 1540.59 Q2330.16 1540.59 2327.08 1536.01 Q2324.03 1531.4 2324.03 1522.67 Q2324.03 1513.92 2327.08 1509.34 Q2330.16 1504.73 2335.97 1504.73 Z" fill="#000000" fill-rule="evenodd" fill-opacity="1" /><path clip-path="url(#clip5600)" d="M 0 0 M75.4226 1464.18 Q71.8115 1464.18 69.9828 1467.74 Q68.1773 1471.28 68.1773 1478.41 Q68.1773 1485.52 69.9828 1489.08 Q71.8115 1492.62 75.4226 1492.62 Q79.0569 1492.62 80.8624 1489.08 Q82.6911 1485.52 82.6911 1478.41 Q82.6911 1471.28 80.8624 1467.74 Q79.0569 1464.18 75.4226 1464.18 M75.4226 1460.47 Q81.2328 1460.47 84.2883 1465.08 Q87.367 1469.66 87.367 1478.41 Q87.367 1487.14 84.2883 1491.74 Q81.2328 1496.33 75.4226 1496.33 Q69.6125 1496.33 66.5338 1491.74 Q63.4782 1487.14 63.4782 1478.41 Q63.4782 1469.66 66.5338 1465.08 Q69.6125 1460.47 75.4226 1460.47 Z" fill="#000000" fill-rule="evenodd" fill-opacity="1" /><path clip-path="url(#clip5600)" d="M 0 0 M92.4364 1489.78 L97.3206 1489.78 L97.3206 1495.66 L92.4364 1495.66 L92.4364 1489.78 Z" fill="#000000" fill-rule="evenodd" fill-opacity="1" /><path clip-path="url(#clip5600)" d="M 0 0 M112.39 1464.18 Q108.779 1464.18 106.95 1467.74 Q105.145 1471.28 105.145 1478.41 Q105.145 1485.52 106.95 1489.08 Q108.779 1492.62 112.39 1492.62 Q116.024 1492.62 117.83 1489.08 Q119.658 1485.52 119.658 1478.41 Q119.658 1471.28 117.83 1467.74 Q116.024 1464.18 112.39 1464.18 M112.39 1460.47 Q118.2 1460.47 121.256 1465.08 Q124.334 1469.66 124.334 1478.41 Q124.334 1487.14 121.256 1491.74 Q118.2 1496.33 112.39 1496.33 Q106.58 1496.33 103.501 1491.74 Q100.446 1487.14 100.446 1478.41 Q100.446 1469.66 103.501 1465.08 Q106.58 1460.47 112.39 1460.47 Z" fill="#000000" fill-rule="evenodd" fill-opacity="1" /><path clip-path="url(#clip5600)" d="M 0 0 M77.0198 1097.79 Q73.4087 1097.79 71.58 1101.35 Q69.7745 1104.89 69.7745 1112.02 Q69.7745 1119.13 71.58 1122.7 Q73.4087 1126.24 77.0198 1126.24 Q80.6541 1126.24 82.4596 1122.7 Q84.2883 1119.13 84.2883 1112.02 Q84.2883 1104.89 82.4596 1101.35 Q80.6541 1097.79 77.0198 1097.79 M77.0198 1094.08 Q82.83 1094.08 85.8855 1098.69 Q88.9642 1103.27 88.9642 1112.02 Q88.9642 1120.75 85.8855 1125.36 Q82.83 1129.94 77.0198 1129.94 Q71.2097 1129.94 68.131 1125.36 Q65.0754 1120.75 65.0754 1112.02 Q65.0754 1103.27 68.131 1098.69 Q71.2097 1094.08 77.0198 1094.08 Z" fill="#000000" fill-rule="evenodd" fill-opacity="1" /><path clip-path="url(#clip5600)" d="M 0 0 M94.0336 1123.39 L98.9179 1123.39 L98.9179 1129.27 L94.0336 1129.27 L94.0336 1123.39 Z" fill="#000000" fill-rule="evenodd" fill-opacity="1" /><path clip-path="url(#clip5600)" d="M 0 0 M108.015 1125.33 L124.334 1125.33 L124.334 1129.27 L102.39 1129.27 L102.39 1125.33 Q105.052 1122.58 109.635 1117.95 Q114.242 1113.3 115.422 1111.95 Q117.668 1109.43 118.547 1107.7 Q119.45 1105.94 119.45 1104.25 Q119.45 1101.49 117.506 1099.76 Q115.584 1098.02 112.483 1098.02 Q110.284 1098.02 107.83 1098.78 Q105.399 1099.55 102.622 1101.1 L102.622 1096.38 Q105.446 1095.24 107.899 1094.66 Q110.353 1094.08 112.39 1094.08 Q117.76 1094.08 120.955 1096.77 Q124.149 1099.45 124.149 1103.95 Q124.149 1106.08 123.339 1108 Q122.552 1109.89 120.446 1112.49 Q119.867 1113.16 116.765 1116.38 Q113.663 1119.57 108.015 1125.33 Z" fill="#000000" fill-rule="evenodd" fill-opacity="1" /><path clip-path="url(#clip5600)" d="M 0 0 M74.9365 731.401 Q71.3254 731.401 69.4967 734.966 Q67.6912 738.507 67.6912 745.637 Q67.6912 752.743 69.4967 756.308 Q71.3254 759.85 74.9365 759.85 Q78.5707 759.85 80.3763 756.308 Q82.205 752.743 82.205 745.637 Q82.205 738.507 80.3763 734.966 Q78.5707 731.401 74.9365 731.401 M74.9365 727.697 Q80.7467 727.697 83.8022 732.304 Q86.8809 736.887 86.8809 745.637 Q86.8809 754.364 83.8022 758.97 Q80.7467 763.553 74.9365 763.553 Q69.1264 763.553 66.0477 758.97 Q62.9921 754.364 62.9921 745.637 Q62.9921 736.887 66.0477 732.304 Q69.1264 727.697 74.9365 727.697 Z" fill="#000000" fill-rule="evenodd" fill-opacity="1" /><path clip-path="url(#clip5600)" d="M 0 0 M91.9503 757.003 L96.8345 757.003 L96.8345 762.882 L91.9503 762.882 L91.9503 757.003 Z" fill="#000000" fill-rule="evenodd" fill-opacity="1" /><path clip-path="url(#clip5600)" d="M 0 0 M114.751 732.396 L102.946 750.845 L114.751 750.845 L114.751 732.396 M113.524 728.322 L119.404 728.322 L119.404 750.845 L124.334 750.845 L124.334 754.734 L119.404 754.734 L119.404 762.882 L114.751 762.882 L114.751 754.734 L99.1493 754.734 L99.1493 750.22 L113.524 728.322 Z" fill="#000000" fill-rule="evenodd" fill-opacity="1" /><path clip-path="url(#clip5600)" d="M 0 0 M75.2606 365.013 Q71.6495 365.013 69.8208 368.578 Q68.0152 372.12 68.0152 379.25 Q68.0152 386.356 69.8208 389.921 Q71.6495 393.462 75.2606 393.462 Q78.8948 393.462 80.7004 389.921 Q82.5291 386.356 82.5291 379.25 Q82.5291 372.12 80.7004 368.578 Q78.8948 365.013 75.2606 365.013 M75.2606 361.31 Q81.0707 361.31 84.1263 365.916 Q87.205 370.5 87.205 379.25 Q87.205 387.976 84.1263 392.583 Q81.0707 397.166 75.2606 397.166 Q69.4504 397.166 66.3717 392.583 Q63.3162 387.976 63.3162 379.25 Q63.3162 370.5 66.3717 365.916 Q69.4504 361.31 75.2606 361.31 Z" fill="#000000" fill-rule="evenodd" fill-opacity="1" /><path clip-path="url(#clip5600)" d="M 0 0 M92.2744 390.615 L97.1586 390.615 L97.1586 396.495 L92.2744 396.495 L92.2744 390.615 Z" fill="#000000" fill-rule="evenodd" fill-opacity="1" /><path clip-path="url(#clip5600)" d="M 0 0 M112.807 377.351 Q109.659 377.351 107.807 379.504 Q105.978 381.657 105.978 385.407 Q105.978 389.134 107.807 391.31 Q109.659 393.462 112.807 393.462 Q115.955 393.462 117.783 391.31 Q119.635 389.134 119.635 385.407 Q119.635 381.657 117.783 379.504 Q115.955 377.351 112.807 377.351 M122.089 362.699 L122.089 366.958 Q120.33 366.125 118.524 365.685 Q116.742 365.245 114.983 365.245 Q110.353 365.245 107.899 368.37 Q105.469 371.495 105.122 377.814 Q106.487 375.8 108.547 374.736 Q110.608 373.648 113.084 373.648 Q118.293 373.648 121.302 376.819 Q124.334 379.967 124.334 385.407 Q124.334 390.731 121.186 393.948 Q118.038 397.166 112.807 397.166 Q106.811 397.166 103.64 392.583 Q100.469 387.976 100.469 379.25 Q100.469 371.055 104.358 366.194 Q108.247 361.31 114.797 361.31 Q116.557 361.31 118.339 361.657 Q120.145 362.004 122.089 362.699 Z" fill="#000000" fill-rule="evenodd" fill-opacity="1" /><polyline clip-path="url(#clip5602)" style="stroke:#009af9; stroke-width:4; stroke-opacity:1; fill:none" points="
  1868.97,304.616 477.817,304.785 1697.62,1095.37 2109.76,1235.77 445.336,257.861 1925.14,492.582 1396.15,1253.47 2141.63,434.156 210.724,118.247 1238.82,1249.17 
  1567.21,131.776 336.906,1286.72 605.161,160.2 975.061,243.783 1393.93,1171.79 1483.87,945.33 1601.07,935.993 1991.47,1123.62 1698.72,713.897 1047.5,1240.11 
  2138.22,681.763 1562.84,1445.72 1349.7,1222.12 2034.49,1036.95 876.796,158.3 1338.97,226.553 272.557,87.9763 382.956,801.665 2037.75,1301.67 1117.94,1065.33 
  976.464,1342 2188.8,515.606 859.784,232.209 412.647,215.225 2014.57,123.636 1694.39,870.669 1939.13,957.033 899.612,813.502 581.723,792.977 2235.77,163.291 
  518.918,909.843 2202.31,937.489 2013.3,607.119 1756.32,896.983 1959.03,223.579 1052.64,424.342 324.17,953.401 964.89,139.771 1105.35,734.41 956.557,373.204 
  1460.94,1233.03 1419.14,1194.4 1284.31,735.985 728.466,1336.27 2290.37,193.033 757.46,753.263 1759.18,1143.48 1389,1100.76 1898.88,916.836 1122.09,469.149 
  2097.48,727.888 797.499,770.152 857.048,175.335 1484.92,1050.77 1310.11,860.018 1283.51,730.696 1674.36,286.174 1872.16,572.003 2176.36,117.387 473.189,1286.08 
  2204.26,771.517 762.97,1098.14 336.75,135.849 1111.25,1292.88 1947.46,1412.1 397.041,992.897 2156.65,248.415 888.002,1116.97 2225.81,1282.92 1002.89,825.995 
  797.319,276.233 784.21,992.599 1259.14,727.309 1519.22,363.438 955.046,281.395 1824.77,256.865 1591.59,1382.64 2038.16,99.1932 1677.87,262.97 676.042,628.427 
  1223.9,542.317 1470.01,608.856 707.214,730.893 2076.14,260.537 2082.08,514.65 1837.39,119.636 2128.9,1037.51 1545.09,430.896 1852.52,416.984 250.966,130.863 
  
  "/>
<path clip-path="url(#clip5600)" d="
M1989.74 251.724 L2280.76 251.724 L2280.76 130.764 L1989.74 130.764  Z
  " fill="#ffffff" fill-rule="evenodd" fill-opacity="1"/>
<polyline clip-path="url(#clip5600)" style="stroke:#000000; stroke-width:4; stroke-opacity:1; fill:none" points="
  1989.74,251.724 2280.76,251.724 2280.76,130.764 1989.74,130.764 1989.74,251.724 
  "/>
<polyline clip-path="url(#clip5600)" style="stroke:#009af9; stroke-width:4; stroke-opacity:1; fill:none" points="
  2013.74,191.244 2157.74,191.244 
  "/>
<path clip-path="url(#clip5600)" d="M 0 0 M2195.58 210.931 Q2193.77 215.561 2192.06 216.973 Q2190.35 218.385 2187.48 218.385 L2184.08 218.385 L2184.08 214.82 L2186.58 214.82 Q2188.33 214.82 2189.31 213.987 Q2190.28 213.154 2191.46 210.052 L2192.22 208.107 L2181.74 182.598 L2186.25 182.598 L2194.35 202.876 L2202.46 182.598 L2206.97 182.598 L2195.58 210.931 Z" fill="#000000" fill-rule="evenodd" fill-opacity="1" /><path clip-path="url(#clip5600)" d="M 0 0 M2212.85 204.589 L2220.49 204.589 L2220.49 178.223 L2212.18 179.89 L2212.18 175.631 L2220.44 173.964 L2225.12 173.964 L2225.12 204.589 L2232.76 204.589 L2232.76 208.524 L2212.85 208.524 L2212.85 204.589 Z" fill="#000000" fill-rule="evenodd" fill-opacity="1" /></svg>
