<?xml version="1.0" encoding="utf-8"?>
<svg xmlns="http://www.w3.org/2000/svg" xmlns:xlink="http://www.w3.org/1999/xlink" width="600" height="400" viewBox="0 0 2400 1600">
<defs>
  <clipPath id="clip4700">
    <rect x="0" y="0" width="2400" height="1600"/>
  </clipPath>
</defs>
<path clip-path="url(#clip4700)" d="
M0 1600 L2400 1600 L2400 0 L0 0  Z
  " fill="#ffffff" fill-rule="evenodd" fill-opacity="1"/>
<defs>
  <clipPath id="clip4701">
    <rect x="480" y="0" width="1681" height="1600"/>
  </clipPath>
</defs>
<path clip-path="url(#clip4700)" d="
M162.455 1486.45 L2352.76 1486.45 L2352.76 47.2441 L162.455 47.2441  Z
  " fill="#ffffff" fill-rule="evenodd" fill-opacity="1"/>
<defs>
  <clipPath id="clip4702">
    <rect x="162" y="47" width="2191" height="1440"/>
  </clipPath>
</defs>
<polyline clip-path="url(#clip4702)" style="stroke:#000000; stroke-width:2; stroke-opacity:0.1; fill:none" points="
  454.036,1486.45 454.036,47.2441 
  "/>
<polyline clip-path="url(#clip4702)" style="stroke:#000000; stroke-width:2; stroke-opacity:0.1; fill:none" points="
  913.218,1486.45 913.218,47.2441 
  "/>
<polyline clip-path="url(#clip4702)" style="stroke:#000000; stroke-width:2; stroke-opacity:0.1; fill:none" points="
  1372.4,1486.45 1372.4,47.2441 
  "/>
<polyline clip-path="url(#clip4702)" style="stroke:#000000; stroke-width:2; stroke-opacity:0.1; fill:none" points="
  1831.58,1486.45 1831.58,47.2441 
  "/>
<polyline clip-path="url(#clip4702)" style="stroke:#000000; stroke-width:2; stroke-opacity:0.1; fill:none" points="
  2290.77,1486.45 2290.77,47.2441 
  "/>
<polyline clip-path="url(#clip4702)" style="stroke:#000000; stroke-width:2; stroke-opacity:0.1; fill:none" points="
  162.455,1445.77 2352.76,1445.77 
  "/>
<polyline clip-path="url(#clip4702)" style="stroke:#000000; stroke-width:2; stroke-opacity:0.1; fill:none" points="
  162.455,1106.25 2352.76,1106.25 
  "/>
<polyline clip-path="url(#clip4702)" style="stroke:#000000; stroke-width:2; stroke-opacity:0.1; fill:none" points="
  162.455,766.727 2352.76,766.727 
  "/>
<polyline clip-path="url(#clip4702)" style="stroke:#000000; stroke-width:2; stroke-opacity:0.1; fill:none" points="
  162.455,427.207 2352.76,427.207 
  "/>
<polyline clip-path="url(#clip4702)" style="stroke:#000000; stroke-width:2; stroke-opacity:0.1; fill:none" points="
  162.455,87.6867 2352.76,87.6867 
  "/>
<polyline clip-path="url(#clip4700)" style="stroke:#000000; stroke-width:4; stroke-opacity:1; fill:none" points="
  162.455,1486.45 2352.76,1486.45 
  "/>
<polyline clip-path="url(#clip4700)" style="stroke:#000000; stroke-width:4; stroke-opacity:1; fill:none" points="
  162.455,1486.45 162.455,47.2441 
  "/>
<polyline clip-path="url(#clip4700)" style="stroke:#000000; stroke-width:4; stroke-opacity:1; fill:none" points="
  454.036,1486.45 454.036,1469.18 
  "/>
<polyline clip-path="url(#clip4700)" style="stroke:#000000; stroke-width:4; stroke-opacity:1; fill:none" points="
  913.218,1486.45 913.218,1469.18 
  "/>
<polyline clip-path="url(#clip4700)" style="stroke:#000000; stroke-width:4; stroke-opacity:1; fill:none" points="
  1372.4,1486.45 1372.4,1469.18 
  "/>
<polyline clip-path="url(#clip4700)" style="stroke:#000000; stroke-width:4; stroke-opacity:1; fill:none" points="
  1831.58,1486.45 1831.58,1469.18 
  "/>
<polyline clip-path="url(#clip4700)" style="stroke:#000000; stroke-width:4; stroke-opacity:1; fill:none" points="
  2290.77,1486.45 2290.77,1469.18 
  "/>
<polyline clip-path="url(#clip4700)" style="stroke:#000000; stroke-width:4; stroke-opacity:1; fill:none" points="
  162.455,1445.77 188.738,1445.77 
  "/>
<polyline clip-path="url(#clip4700)" style="stroke:#000000; stroke-width:4; stroke-opacity:1; fill:none" points="
  162.455,1106.25 188.738,1106.25 
  "/>
<polyline clip-path="url(#clip4700)" style="stroke:#000000; stroke-width:4; stroke-opacity:1; fill:none" points="
  162.455,766.727 188.738,766.727 
  "/>
<polyline clip-path="url(#clip4700)" style="stroke:#000000; stroke-width:4; stroke-opacity:1; fill:none" points="
  162.455,427.207 188.738,427.207 
  "/>
<polyline clip-path="url(#clip4700)" style="stroke:#000000; stroke-width:4; stroke-opacity:1; fill:none" points="
  162.455,87.6867 188.738,87.6867 
  "/>
<path clip-path="url(#clip4700)" d="M 0 0 M448.688 1535.98 L465.008 1535.98 L465.008 1539.92 L443.064 1539.92 L443.064 1535.98 Q445.726 1533.23 450.309 1528.6 Q454.915 1523.95 456.096 1522.61 Q458.341 1520.08 459.221 1518.35 Q460.124 1516.59 460.124 1514.9 Q460.124 1512.14 458.179 1510.41 Q456.258 1508.67 453.156 1508.67 Q450.957 1508.67 448.503 1509.43 Q446.073 1510.2 443.295 1511.75 L443.295 1507.03 Q446.119 1505.89 448.573 1505.31 Q451.026 1504.73 453.063 1504.73 Q458.434 1504.73 461.628 1507.42 Q464.823 1510.11 464.823 1514.6 Q464.823 1516.73 464.012 1518.65 Q463.225 1520.54 461.119 1523.14 Q460.54 1523.81 457.438 1527.03 Q454.337 1530.22 448.688 1535.98 Z" fill="#000000" fill-rule="evenodd" fill-opacity="1" /><path clip-path="url(#clip4700)" d="M 0 0 M916.228 1509.43 L904.422 1527.88 L916.228 1527.88 L916.228 1509.43 M915.001 1505.36 L920.88 1505.36 L920.88 1527.88 L925.811 1527.88 L925.811 1531.77 L920.88 1531.77 L920.88 1539.92 L916.228 1539.92 L916.228 1531.77 L900.626 1531.77 L900.626 1527.26 L915.001 1505.36 Z" fill="#000000" fill-rule="evenodd" fill-opacity="1" /><path clip-path="url(#clip4700)" d="M 0 0 M1372.81 1520.78 Q1369.66 1520.78 1367.81 1522.93 Q1365.98 1525.08 1365.98 1528.83 Q1365.98 1532.56 1367.81 1534.73 Q1369.66 1536.89 1372.81 1536.89 Q1375.95 1536.89 1377.78 1534.73 Q1379.63 1532.56 1379.63 1528.83 Q1379.63 1525.08 1377.78 1522.93 Q1375.95 1520.78 1372.81 1520.78 M1382.09 1506.12 L1382.09 1510.38 Q1380.33 1509.55 1378.52 1509.11 Q1376.74 1508.67 1374.98 1508.67 Q1370.35 1508.67 1367.9 1511.8 Q1365.47 1514.92 1365.12 1521.24 Q1366.49 1519.23 1368.55 1518.16 Q1370.61 1517.07 1373.08 1517.07 Q1378.29 1517.07 1381.3 1520.24 Q1384.33 1523.39 1384.33 1528.83 Q1384.33 1534.16 1381.19 1537.37 Q1378.04 1540.59 1372.81 1540.59 Q1366.81 1540.59 1363.64 1536.01 Q1360.47 1531.4 1360.47 1522.67 Q1360.47 1514.48 1364.36 1509.62 Q1368.25 1504.73 1374.8 1504.73 Q1376.56 1504.73 1378.34 1505.08 Q1380.14 1505.43 1382.09 1506.12 Z" fill="#000000" fill-rule="evenodd" fill-opacity="1" /><path clip-path="url(#clip4700)" d="M 0 0 M1831.58 1523.51 Q1828.25 1523.51 1826.33 1525.29 Q1824.43 1527.07 1824.43 1530.2 Q1824.43 1533.32 1826.33 1535.11 Q1828.25 1536.89 1831.58 1536.89 Q1834.92 1536.89 1836.84 1535.11 Q1838.76 1533.3 1838.76 1530.2 Q1838.76 1527.07 1836.84 1525.29 Q1834.94 1523.51 1831.58 1523.51 M1826.91 1521.52 Q1823.9 1520.78 1822.21 1518.72 Q1820.54 1516.66 1820.54 1513.69 Q1820.54 1509.55 1823.48 1507.14 Q1826.44 1504.73 1831.58 1504.73 Q1836.75 1504.73 1839.69 1507.14 Q1842.63 1509.55 1842.63 1513.69 Q1842.63 1516.66 1840.94 1518.72 Q1839.27 1520.78 1836.28 1521.52 Q1839.66 1522.3 1841.54 1524.6 Q1843.44 1526.89 1843.44 1530.2 Q1843.44 1535.22 1840.36 1537.91 Q1837.3 1540.59 1831.58 1540.59 Q1825.87 1540.59 1822.79 1537.91 Q1819.73 1535.22 1819.73 1530.2 Q1819.73 1526.89 1821.63 1524.6 Q1823.53 1522.3 1826.91 1521.52 M1825.19 1514.13 Q1825.19 1516.82 1826.86 1518.32 Q1828.55 1519.83 1831.58 1519.83 Q1834.59 1519.83 1836.28 1518.32 Q1838 1516.82 1838 1514.13 Q1838 1511.45 1836.28 1509.94 Q1834.59 1508.44 1831.58 1508.44 Q1828.55 1508.44 1826.86 1509.94 Q1825.19 1511.45 1825.19 1514.13 Z" fill="#000000" fill-rule="evenodd" fill-opacity="1" /><path clip-path="url(#clip4700)" d="M 0 0 M2267.64 1535.98 L2275.28 1535.98 L2275.28 1509.62 L2266.97 1511.29 L2266.97 1507.03 L2275.23 1505.36 L2279.91 1505.36 L2279.91 1535.98 L2287.55 1535.98 L2287.55 1539.92 L2267.64 1539.92 L2267.64 1535.98 Z" fill="#000000" fill-rule="evenodd" fill-opacity="1" /><path clip-path="url(#clip4700)" d="M 0 0 M2302.62 1508.44 Q2299.01 1508.44 2297.18 1512 Q2295.37 1515.55 2295.37 1522.67 Q2295.37 1529.78 2297.18 1533.35 Q2299.01 1536.89 2302.62 1536.89 Q2306.25 1536.89 2308.06 1533.35 Q2309.89 1529.78 2309.89 1522.67 Q2309.89 1515.55 2308.06 1512 Q2306.25 1508.44 2302.62 1508.44 M2302.62 1504.73 Q2308.43 1504.73 2311.48 1509.34 Q2314.56 1513.92 2314.56 1522.67 Q2314.56 1531.4 2311.48 1536.01 Q2308.43 1540.59 2302.62 1540.59 Q2296.81 1540.59 2293.73 1536.01 Q2290.67 1531.4 2290.67 1522.67 Q2290.67 1513.92 2293.73 1509.34 Q2296.81 1504.73 2302.62 1504.73 Z" fill="#000000" fill-rule="evenodd" fill-opacity="1" /><path clip-path="url(#clip4700)" d="M 0 0 M63.2236 1448.16 L75.7004 1448.16 L75.7004 1451.96 L63.2236 1451.96 L63.2236 1448.16 Z" fill="#000000" fill-rule="evenodd" fill-opacity="1" /><path clip-path="url(#clip4700)" d="M 0 0 M81.58 1459.11 L89.2188 1459.11 L89.2188 1432.75 L80.9087 1434.41 L80.9087 1430.15 L89.1725 1428.49 L93.8484 1428.49 L93.8484 1459.11 L101.487 1459.11 L101.487 1463.05 L81.58 1463.05 L81.58 1459.11 Z" fill="#000000" fill-rule="evenodd" fill-opacity="1" /><path clip-path="url(#clip4700)" d="M 0 0 M106.557 1457.17 L111.441 1457.17 L111.441 1463.05 L106.557 1463.05 L106.557 1457.17 Z" fill="#000000" fill-rule="evenodd" fill-opacity="1" /><path clip-path="url(#clip4700)" d="M 0 0 M126.51 1431.57 Q122.899 1431.57 121.071 1435.13 Q119.265 1438.67 119.265 1445.8 Q119.265 1452.91 121.071 1456.47 Q122.899 1460.02 126.51 1460.02 Q130.145 1460.02 131.95 1456.47 Q133.779 1452.91 133.779 1445.8 Q133.779 1438.67 131.95 1435.13 Q130.145 1431.57 126.51 1431.57 M126.51 1427.86 Q132.32 1427.86 135.376 1432.47 Q138.455 1437.05 138.455 1445.8 Q138.455 1454.53 135.376 1459.14 Q132.32 1463.72 126.51 1463.72 Q120.7 1463.72 117.621 1459.14 Q114.566 1454.53 114.566 1445.8 Q114.566 1437.05 117.621 1432.47 Q120.7 1427.86 126.51 1427.86 Z" fill="#000000" fill-rule="evenodd" fill-opacity="1" /><path clip-path="url(#clip4700)" d="M 0 0 M62.9921 1108.64 L75.4689 1108.64 L75.4689 1112.44 L62.9921 1112.44 L62.9921 1108.64 Z" fill="#000000" fill-rule="evenodd" fill-opacity="1" /><path clip-path="url(#clip4700)" d="M 0 0 M90.5383 1092.05 Q86.9272 1092.05 85.0985 1095.61 Q83.2929 1099.15 83.2929 1106.28 Q83.2929 1113.39 85.0985 1116.95 Q86.9272 1120.5 90.5383 1120.5 Q94.1725 1120.5 95.9781 1116.95 Q97.8068 1113.39 97.8068 1106.28 Q97.8068 1099.15 95.9781 1095.61 Q94.1725 1092.05 90.5383 1092.05 M90.5383 1088.34 Q96.3484 1088.34 99.404 1092.95 Q102.483 1097.53 102.483 1106.28 Q102.483 1115.01 99.404 1119.62 Q96.3484 1124.2 90.5383 1124.2 Q84.7281 1124.2 81.6494 1119.62 Q78.5939 1115.01 78.5939 1106.28 Q78.5939 1097.53 81.6494 1092.95 Q84.7281 1088.34 90.5383 1088.34 Z" fill="#000000" fill-rule="evenodd" fill-opacity="1" /><path clip-path="url(#clip4700)" d="M 0 0 M107.552 1117.65 L112.436 1117.65 L112.436 1123.53 L107.552 1123.53 L107.552 1117.65 Z" fill="#000000" fill-rule="evenodd" fill-opacity="1" /><path clip-path="url(#clip4700)" d="M 0 0 M117.552 1088.97 L135.908 1088.97 L135.908 1092.9 L121.834 1092.9 L121.834 1101.37 Q122.853 1101.03 123.871 1100.87 Q124.89 1100.68 125.908 1100.68 Q131.695 1100.68 135.075 1103.85 Q138.455 1107.02 138.455 1112.44 Q138.455 1118.02 134.982 1121.12 Q131.51 1124.2 125.191 1124.2 Q123.015 1124.2 120.746 1123.83 Q118.501 1123.46 116.094 1122.72 L116.094 1118.02 Q118.177 1119.15 120.399 1119.71 Q122.621 1120.26 125.098 1120.26 Q129.103 1120.26 131.441 1118.16 Q133.779 1116.05 133.779 1112.44 Q133.779 1108.83 131.441 1106.72 Q129.103 1104.62 125.098 1104.62 Q123.223 1104.62 121.348 1105.03 Q119.496 1105.45 117.552 1106.33 L117.552 1088.97 Z" fill="#000000" fill-rule="evenodd" fill-opacity="1" /><path clip-path="url(#clip4700)" d="M 0 0 M89.5429 752.526 Q85.9318 752.526 84.1031 756.091 Q82.2976 759.632 82.2976 766.762 Q82.2976 773.868 84.1031 777.433 Q85.9318 780.975 89.5429 780.975 Q93.1771 780.975 94.9827 777.433 Q96.8114 773.868 96.8114 766.762 Q96.8114 759.632 94.9827 756.091 Q93.1771 752.526 89.5429 752.526 M89.5429 748.822 Q95.3531 748.822 98.4086 753.429 Q101.487 758.012 101.487 766.762 Q101.487 775.489 98.4086 780.095 Q95.3531 784.679 89.5429 784.679 Q83.7328 784.679 80.6541 780.095 Q77.5985 775.489 77.5985 766.762 Q77.5985 758.012 80.6541 753.429 Q83.7328 748.822 89.5429 748.822 Z" fill="#000000" fill-rule="evenodd" fill-opacity="1" /><path clip-path="url(#clip4700)" d="M 0 0 M106.557 778.128 L111.441 778.128 L111.441 784.007 L106.557 784.007 L106.557 778.128 Z" fill="#000000" fill-rule="evenodd" fill-opacity="1" /><path clip-path="url(#clip4700)" d="M 0 0 M126.51 752.526 Q122.899 752.526 121.071 756.091 Q119.265 759.632 119.265 766.762 Q119.265 773.868 121.071 777.433 Q122.899 780.975 126.51 780.975 Q130.145 780.975 131.95 777.433 Q133.779 773.868 133.779 766.762 Q133.779 759.632 131.95 756.091 Q130.145 752.526 126.51 752.526 M126.51 748.822 Q132.32 748.822 135.376 753.429 Q138.455 758.012 138.455 766.762 Q138.455 775.489 135.376 780.095 Q132.32 784.679 126.51 784.679 Q120.7 784.679 117.621 780.095 Q114.566 775.489 114.566 766.762 Q114.566 758.012 117.621 753.429 Q120.7 748.822 126.51 748.822 Z" fill="#000000" fill-rule="evenodd" fill-opacity="1" /><path clip-path="url(#clip4700)" d="M 0 0 M90.5383 413.006 Q86.9272 413.006 85.0985 416.57 Q83.2929 420.112 83.2929 427.242 Q83.2929 434.348 85.0985 437.913 Q86.9272 441.455 90.5383 441.455 Q94.1725 441.455 95.9781 437.913 Q97.8068 434.348 97.8068 427.242 Q97.8068 420.112 95.9781 416.57 Q94.1725 413.006 90.5383 413.006 M90.5383 409.302 Q96.3484 409.302 99.404 413.908 Q102.483 418.492 102.483 427.242 Q102.483 435.969 99.404 440.575 Q96.3484 445.158 90.5383 445.158 Q84.7281 445.158 81.6494 440.575 Q78.5939 435.969 78.5939 427.242 Q78.5939 418.492 81.6494 413.908 Q84.7281 409.302 90.5383 409.302 Z" fill="#000000" fill-rule="evenodd" fill-opacity="1" /><path clip-path="url(#clip4700)" d="M 0 0 M107.552 438.607 L112.436 438.607 L112.436 444.487 L107.552 444.487 L107.552 438.607 Z" fill="#000000" fill-rule="evenodd" fill-opacity="1" /><path clip-path="url(#clip4700)" d="M 0 0 M117.552 409.927 L135.908 409.927 L135.908 413.862 L121.834 413.862 L121.834 422.334 Q122.853 421.987 123.871 421.825 Q124.89 421.64 125.908 421.64 Q131.695 421.64 135.075 424.811 Q138.455 427.982 138.455 433.399 Q138.455 438.978 134.982 442.08 Q131.51 445.158 125.191 445.158 Q123.015 445.158 120.746 444.788 Q118.501 444.418 116.094 443.677 L116.094 438.978 Q118.177 440.112 120.399 440.668 Q122.621 441.223 125.098 441.223 Q129.103 441.223 131.441 439.117 Q133.779 437.01 133.779 433.399 Q133.779 429.788 131.441 427.682 Q129.103 425.575 125.098 425.575 Q123.223 425.575 121.348 425.992 Q119.496 426.408 117.552 427.288 L117.552 409.927 Z" fill="#000000" fill-rule="evenodd" fill-opacity="1" /><path clip-path="url(#clip4700)" d="M 0 0 M81.58 101.032 L89.2188 101.032 L89.2188 74.666 L80.9087 76.3326 L80.9087 72.0734 L89.1725 70.4067 L93.8484 70.4067 L93.8484 101.032 L101.487 101.032 L101.487 104.967 L81.58 104.967 L81.58 101.032 Z" fill="#000000" fill-rule="evenodd" fill-opacity="1" /><path clip-path="url(#clip4700)" d="M 0 0 M106.557 99.0871 L111.441 99.0871 L111.441 104.967 L106.557 104.967 L106.557 99.0871 Z" fill="#000000" fill-rule="evenodd" fill-opacity="1" /><path clip-path="url(#clip4700)" d="M 0 0 M126.51 73.4854 Q122.899 73.4854 121.071 77.0502 Q119.265 80.5919 119.265 87.7215 Q119.265 94.8279 121.071 98.3927 Q122.899 101.934 126.51 101.934 Q130.145 101.934 131.95 98.3927 Q133.779 94.8279 133.779 87.7215 Q133.779 80.5919 131.95 77.0502 Q130.145 73.4854 126.51 73.4854 M126.51 69.7817 Q132.32 69.7817 135.376 74.3882 Q138.455 78.9715 138.455 87.7215 Q138.455 96.4483 135.376 101.055 Q132.32 105.638 126.51 105.638 Q120.7 105.638 117.621 101.055 Q114.566 96.4483 114.566 87.7215 Q114.566 78.9715 117.621 74.3882 Q120.7 69.7817 126.51 69.7817 Z" fill="#000000" fill-rule="evenodd" fill-opacity="1" /><polyline clip-path="url(#clip4702)" style="stroke:#009af9; stroke-width:4; stroke-opacity:1; fill:none" points="
  224.444,195.334 247.403,161.561 270.363,133.835 293.322,112.432 316.281,97.567 339.24,89.3877 362.199,87.9763 385.158,93.3467 408.117,105.445 431.077,124.151 
  454.036,149.277 476.995,180.573 499.954,217.725 522.913,260.363 545.872,308.06 568.831,360.34 591.79,416.681 614.75,476.519 637.709,539.257 660.668,604.267 
  683.627,670.901 706.586,738.492 729.545,806.366 752.504,873.843 775.464,940.25 798.423,1004.92 821.382,1067.22 844.341,1126.51 867.3,1182.2 890.259,1233.75 
  913.218,1280.63 936.177,1322.37 959.137,1358.56 982.096,1388.84 1005.05,1412.9 1028.01,1430.51 1050.97,1441.48 1073.93,1445.72 1096.89,1443.16 1119.85,1433.85 
  1142.81,1417.88 1165.77,1395.39 1188.73,1366.63 1211.69,1331.87 1234.65,1291.47 1257.61,1245.82 1280.56,1195.38 1303.52,1140.67 1326.48,1082.21 1349.44,1020.6 
  1372.4,956.462 1395.36,890.423 1418.32,823.148 1441.28,755.31 1464.24,687.586 1487.2,620.652 1510.16,555.178 1533.11,491.818 1556.07,431.204 1579.03,373.943 
  1601.99,320.607 1624.95,271.728 1647.91,227.795 1670.87,189.246 1693.83,156.468 1716.79,129.787 1739.75,109.471 1762.71,95.721 1785.67,88.6759 1808.62,88.4056 
  1831.58,94.9129 1854.54,108.133 1877.5,127.933 1900.46,154.116 1923.42,186.42 1946.38,224.522 1969.34,268.042 1992.3,316.544 2015.26,369.545 2038.22,426.514 
  2061.17,486.882 2084.13,550.047 2107.09,615.376 2130.05,682.218 2153.01,749.904 2175.97,817.758 2198.93,885.102 2221.89,951.264 2244.85,1015.58 2267.81,1077.41 
  2290.77,1136.14 
  "/>
<path clip-path="url(#clip4700)" d="
M1989.74 251.724 L2280.76 251.724 L2280.76 130.764 L1989.74 130.764  Z
  " fill="#ffffff" fill-rule="evenodd" fill-opacity="1"/>
<polyline clip-path="url(#clip4700)" style="stroke:#000000; stroke-width:4; stroke-opacity:1; fill:none" points="
  1989.74,251.724 2280.76,251.724 2280.76,130.764 1989.74,130.764 1989.74,251.724 
  "/>
<polyline clip-path="url(#clip4700)" style="stroke:#009af9; stroke-width:4; stroke-opacity:1; fill:none" points="
  2013.74,191.244 2157.74,191.244 
  "/>
<path clip-path="url(#clip4700)" d="M 0 0 M2195.58 210.931 Q2193.77 215.561 2192.06 216.973 Q2190.35 218.385 2187.48 218.385 L2184.08 218.385 L2184.08 214.82 L2186.58 214.82 Q2188.33 214.82 2189.31 213.987 Q2190.28 213.154 2191.46 210.052 L2192.22 208.107 L2181.74 182.598 L2186.25 182.598 L2194.35 202.876 L2202.46 182.598 L2206.97 182.598 L2195.58 210.931 Z" fill="#000000" fill-rule="evenodd" fill-opacity="1" /><path clip-path="url(#clip4700)" d="M 0 0 M2212.85 204.589 L2220.49 204.589 L2220.49 178.223 L2212.18 179.89 L2212.18 175.631 L2220.44 173.964 L2225.12 173.964 L2225.12 204.589 L2232.76 204.589 L2232.76 208.524 L2212.85 208.524 L2212.85 204.589 Z" fill="#000000" fill-rule="evenodd" fill-opacity="1" /></svg>
